<svg version="1" xmlns="http://www.w3.org/2000/svg" width="933.333" height="933.333" viewBox="0 0 700.000000 700.000000"><path d="M341.8 54.5c-.2.1-4.1.5-8.8.9-8.5.6-10.7.9-21 2.6-3 .5-7.1 1.2-9 1.5-8.8 1.5-32.2 8.1-40.5 11.5-1.1.4-3.6 1.4-5.5 2.1-23.6 8.7-53.1 26.5-76.8 46.3-18.1 15.2-40.9 41.6-53.6 62.3-.1.2-7.1.8-18.6 1.8-6.6.6-8.3.8-18 2.5-3 .5-7.3 1.2-9.5 1.5-2.2.3-9.6 1.5-16.5 2.6s-13.4 2.2-14.5 2.4c-8.2 1.2-21.7 6.8-24.7 10.1-3.4 3.8-3.2 6.6 1.2 15 7.3 13.8 18.4 31.3 20.7 32.5 1.8 1 3.8.8 10.5-.9 5.4-1.4 12.5-2.2 20.3-2.5 11.8-.4 14.7-1 19.3-4.3 1.7-1.3 2.1-1.3 1.8-.3-.9 2.6-5.5 19.4-6.1 22.4-.7 3.6-3.2 16.8-3.9 21-.6 3.6-1.7 13.3-2.1 18.9-.5 5.4-.4 36.1 0 40.6 1.4 14.2 1.9 17.9 3.5 26.5.5 2.7 1.2 6.6 1.5 8.5 2.6 15.8 11.5 42 21.2 62 4.7 9.9 17.6 32.5 19.3 34 .3.3 2.2 2.7 4.1 5.5 14 20.4 36.5 43.4 57.4 58.8 5 3.7 9.5 7.1 10.2 7.7 3.5 2.9 25.6 15.6 35.5 20.3 20.1 9.7 46.9 18.7 63.4 21.3 2.1.3 4.2.8 4.5 1 .3.1 3 .6 5.9.9 3 .4 5.7.8 6 1 2.9 1.8 49.1 2.7 64.1 1.2 7.9-.8 8.6-.9 18.4-2.7 3.3-.5 7.4-1.3 9-1.5 1.7-.3 3.8-.8 4.7-1.1 1-.3 3-.7 4.5-1 4.4-.8 16-4.2 26.3-7.9 58.9-20.7 108.9-61.5 141.4-115.1 6.4-10.5 15.5-28.5 18.6-36.4 1.1-3 2.5-6.4 2.9-7.5.5-1.1 2.2-5.8 3.7-10.4 2-5.9 3.4-8.5 4.9-9.1 1.9-.7 5-1.2 16.3-2.6 2.6-.3 5.8-.7 7.1-.9 1.3-.2 6.5-.7 11.5-1 14.5-.9 18.8-1.6 21.3-3.2 3.5-2.3 2.6-5.4-2.2-7.7-4.2-2-8-2.1-37.8-1.6-7.1.1-13 0-13.2-.2-.2-.2 0-2.1.5-4.3 5.2-23.7 6.8-62.8 3.5-87.5-5.8-43.8-20.2-82.3-44-117.9C537 109.2 466.9 65.9 390.3 56.5c-2.4-.3-6.2-.8-8.5-1.1-4-.6-39.5-1.3-40-.9z"/></svg>