<?xml version="1.0" standalone="no"?>
<!DOCTYPE svg PUBLIC "-//W3C//DTD SVG 20010904//EN"
 "http://www.w3.org/TR/2001/REC-SVG-20010904/DTD/svg10.dtd">
<svg version="1.0" xmlns="http://www.w3.org/2000/svg"
 width="700.000000pt" height="700.000000pt" viewBox="0 0 700.000000 700.000000"
 preserveAspectRatio="xMidYMid meet">
<metadata>
Created by potrace 1.11, written by Peter Selinger 2001-2013
</metadata>
<g transform="translate(0.000000,700.000000) scale(0.100000,-0.100000)"
fill="#000000" stroke="none">
<path d="M3410 6454 c-854 -57 -1604 -482 -2081 -1177 -34 -49 -59 -90 -58
-92 8 -7 558 16 624 26 90 15 106 13 147 -10 38 -23 54 -17 59 19 4 23 10 26
84 37 123 18 126 17 115 -11 -17 -46 17 -49 66 -6 42 37 83 47 209 55 121 7
111 -8 -15 -25 -134 -17 -150 -21 -150 -36 0 -10 14 -14 49 -14 55 0 874 78
1151 110 278 31 367 77 125 64 -66 -4 -118 -4 -115 -1 8 9 532 89 538 82 10
-9 -4 -15 -84 -31 -138 -28 -136 -37 11 -36 l80 1 -44 -20 c-24 -12 -39 -24
-35 -28 5 -5 120 -95 257 -201 166 -129 249 -201 253 -217 4 -14 -3 -44 -16
-76 -19 -44 -22 -62 -16 -125 3 -44 1 -90 -6 -117 -11 -41 -3 -125 18 -178 3
-8 -10 -20 -31 -30 -32 -15 -35 -20 -35 -62 0 -53 -18 -102 -49 -129 -11 -11
-21 -23 -21 -27 0 -4 23 -37 50 -73 28 -36 50 -70 50 -75 0 -5 -22 -17 -49
-26 l-48 -16 -6 -93 c-4 -54 -14 -114 -25 -141 l-19 -48 24 -43 24 -42 -41
-23 c-47 -27 -58 -54 -41 -110 12 -38 11 -42 -18 -75 -38 -42 -45 -71 -37
-138 4 -37 2 -58 -8 -72 -16 -22 -20 -53 -18 -136 2 -45 6 -58 20 -62 10 -4
119 7 243 23 498 66 763 87 1273 101 209 6 381 12 383 13 8 8 36 167 48 277
19 157 19 478 1 630 -51 424 -203 834 -438 1185 -437 651 -1124 1078 -1898
1179 -118 15 -401 27 -500 20z"/>
<path d="M3822 5315 c-24 -13 -55 -34 -69 -45 -21 -16 -41 -20 -108 -20 -69 0
-88 -4 -116 -23 -26 -17 -44 -22 -75 -19 -33 3 -50 -2 -83 -23 -22 -15 -69
-37 -103 -50 -52 -18 -67 -29 -84 -60 l-22 -38 -17 27 c-21 32 -35 33 -35 3 0
-36 -10 -38 -47 -10 -24 19 -50 28 -89 31 -52 4 -56 3 -99 -37 l-44 -41 -35
17 c-33 15 -38 15 -77 -3 -57 -25 -115 -68 -130 -96 -10 -18 -9 -24 7 -38 41
-34 57 -62 90 -151 18 -51 32 -94 31 -95 -1 -1 -27 -19 -58 -41 -47 -33 -55
-42 -47 -57 5 -9 14 -47 19 -84 5 -36 18 -81 29 -100 l20 -34 -65 7 -66 7 7
-40 c5 -34 3 -41 -14 -46 -35 -11 -93 -83 -88 -109 3 -12 8 -57 11 -99 4 -43
13 -100 20 -127 l13 -49 -44 -17 c-55 -21 -90 -62 -99 -117 -9 -53 -28 -76
-70 -84 l-33 -6 24 -41 c29 -51 30 -82 5 -124 -11 -17 -23 -49 -26 -70 -4 -21
-13 -58 -20 -83 -8 -25 -28 -108 -46 -185 -35 -154 -37 -262 -6 -340 61 -158
80 -224 85 -303 l5 -84 -31 16 c-45 23 -62 53 -62 111 0 71 -24 144 -80 250
-113 211 -164 400 -206 771 -15 132 -16 184 -5 454 11 306 20 383 60 510 35
111 67 370 46 370 -2 0 -44 -17 -92 -39 -138 -60 -431 -158 -508 -170 -38 -6
-119 -26 -179 -45 -70 -22 -120 -33 -138 -29 -15 3 -41 0 -58 -7 -24 -10 -32
-23 -46 -69 -79 -274 -114 -512 -114 -786 0 -598 184 -1148 547 -1634 100
-134 356 -394 483 -492 388 -299 800 -476 1281 -550 210 -33 572 -33 779 -1
243 39 420 87 645 179 690 281 1261 878 1508 1578 49 141 50 145 35 145 -28 0
-438 -72 -523 -92 -49 -11 -117 -34 -149 -51 -51 -26 -76 -32 -170 -40 -61 -4
-128 -13 -149 -18 -41 -11 -103 -60 -112 -89 -5 -15 -19 -19 -84 -21 -71 -4
-83 -7 -119 -37 -35 -28 -56 -35 -154 -51 -125 -21 -184 -41 -241 -82 -20 -15
-69 -35 -109 -44 -54 -14 -94 -33 -166 -81 -53 -35 -106 -64 -120 -64 -45 0
-97 34 -193 128 -97 94 -146 131 -251 191 -83 46 -108 80 -108 145 0 62 47
231 125 451 133 372 183 596 230 1020 4 37 16 74 30 95 43 65 59 235 36 370
-9 50 -7 58 15 90 35 52 44 121 44 334 0 176 -1 192 -17 192 -10 0 -34 3 -53
7 -27 5 -45 1 -78 -18z"/>
</g>
</svg>
